<svg width="444" height="511.89" xmlns="http://www.w3.org/2000/svg" clip-rule="evenodd" fill-rule="evenodd" image-rendering="optimizeQuality" text-rendering="geometricPrecision" shape-rendering="geometricPrecision">

 <g>
  <title>Layer 1</title>
  <path fill="#7fff00" id="svg_1" d="m141.96,205.46l74.34,-41.56l0,-50.41c-12.75,-7.47 -25.72,-14.71 -38.4,-22.26c-0.17,0.13 -0.34,0.26 -0.53,0.37l-77.67,44.92l0,43.32l0.08,0.05l42.18,25.57zm36.25,220.13l38.09,-21.3l0,-49.97l-76.57,-44.46l-40.07,23.13c0.03,0.74 0.04,1.58 0.04,2.56l0,44.62l78.51,45.42zm48.63,-21.85l37.29,21.59l0.95,0.52l79.22,-45.81l0.02,-45.91l-41.28,-23.83l-76.2,44.31l0,49.13zm44.61,30.24l0.03,2.21l0,48.4c0,1.42 -0.66,2.69 -1.94,3.35l-43.69,25.42c-3.2,1.86 -3.58,2.12 -6.77,0.23c-14.38,-8.47 -29.07,-16.62 -43.36,-25.2c-3.33,-1.92 -4.01,-2.08 -3.93,-5.95l0.01,-48.75l-76.91,-44.49l-0.19,-0.12l-40.63,23.63c-3.2,1.86 -3.58,2.12 -6.77,0.24c-14.38,-8.48 -29.07,-16.62 -43.36,-25.2c-3.33,-1.93 -4.01,-2.09 -3.93,-5.96l0.01,-51.35c0,-1.84 1.33,-2.64 2.66,-3.41l0.17,-0.09l1.32,-0.74l41.55,-23.22l0,-89.47c-13.88,-8.14 -28.02,-16 -41.78,-24.26c-3.33,-1.93 -4.01,-2.09 -3.93,-5.96l0.01,-51.35c0,-1.84 1.33,-2.64 2.66,-3.41l0.17,-0.09l1.32,-0.74l44.01,-24.6c1.92,-1.06 2.51,-1.01 4.39,0.05l39.78,23.03l2.45,1.36l76.99,-44.52l0.01,-50.41c0,-1.84 1.33,-2.64 2.66,-3.41l0.17,-0.09l1.32,-0.74l44.01,-24.6c1.92,-1.06 2.51,-1.01 4.39,0.06l39.78,23.03l2.52,1.39c4.23,2.26 4.83,2.58 4.83,9.47l0,45.17l76.58,44.28l0.16,0.1l43.24,-24.17c1.91,-1.06 2.51,-1.01 4.39,0.05l39.78,23.03l2.52,1.4c4.22,2.26 4.83,2.58 4.83,9.47l0,48.39c0,1.42 -0.66,2.69 -1.95,3.35l-43.01,25.03l-0.03,88.49l38.66,22.38l2.52,1.39c4.22,2.26 4.83,2.59 4.83,9.47l0,48.39c0,1.43 -0.66,2.69 -1.95,3.36l-43.69,25.41c-3.2,1.86 -3.57,2.12 -6.76,0.24c-13.88,-8.18 -28.03,-16.05 -41.85,-24.3l-0.46,0.32l-77.84,45.01zm-86.81,-2.56l37.65,22.68l36.17,-21.96l0.07,-0.42l-35.52,-22.12c-0.46,0.13 -0.94,0.2 -1.44,0.2c-0.23,0 -0.47,-0.01 -0.69,-0.05l-36.24,21.67zm34.01,73.78l0,-44.84l-38.01,-22.62c-0.53,0.08 -1.07,0.06 -1.61,-0.06l0,44.24l39.62,23.28zm44.26,-67l-37.02,22.18l0,44.87l38.35,-22.65l0,-44.58c-0.44,0.13 -0.88,0.19 -1.33,0.18zm-36.07,-323.9l0,49.67l74.1,42.94l42.1,-24.33l0.24,-0.14l0.02,-46.21l-76.18,-44.06c-0.35,-0.2 -0.68,-0.45 -0.96,-0.74l-39.32,22.87zm-42.2,-81.36l37.65,22.68l36.55,-22.19l-36.75,-22.88l-37.45,22.39zm34.01,73.79l0,-44.85l-39.62,-23.57l0,45.13l39.62,23.29zm45.59,-67.8l-38.35,22.97l0,44.87l38.35,-22.65l0,-45.19zm124.53,264.74c-0.03,-0.25 -0.04,-0.49 -0.04,-0.74l0.05,-89.54c-13.02,-7.64 -26.27,-15.03 -39.22,-22.74c-0.35,0.39 -0.78,0.74 -1.26,1.02l-41.95,24.24l0,84.19l43.69,25.22l38.73,-21.65zm-35.06,33.76c-0.68,0.24 -1.43,0.34 -2.16,0.28l0,43.56l39.62,23.29l0,-44.85l-37.46,-22.28zm3.45,-6.66l37.64,22.68l36.56,-22.19l-36.76,-22.88l-37.44,22.39zm79.6,5.99l-38.36,22.97l0,44.87l38.36,-22.65l0,-45.19zm-344.06,-11.88l42.38,-24.47l0,-86.86l-39.11,-23.72l-40.99,23.85l0,89.37l37.37,21.64l0.35,0.19zm-42.12,-16.33l-0.23,0.01l-0.32,-0.01l-37.17,22.22l37.65,22.68l36.55,-22.19l-36.48,-22.71zm-3.71,96.01l0,-44.85l-39.62,-23.57l0,45.13l39.62,23.29zm45.59,-67.8l-38.35,22.97l0,44.87l38.35,-22.65l0,-45.19zm-0.61,-152.95c0.07,-0.67 0.28,-1.32 0.61,-1.94l0,-43.61l-38.35,22.97l0,44.87l37.74,-22.29zm-78.99,-51.54l37.65,22.68l36.55,-22.19l-36.75,-22.88l-37.45,22.39zm34.01,73.79l0,-44.85l-39.62,-23.57l0,45.13l39.62,23.29zm309.27,-73.79l37.64,22.68l36.56,-22.19l-36.76,-22.88l-37.44,22.39zm34.01,73.79l0,-44.85l-39.62,-23.57l0,45.13l39.62,23.29zm45.59,-67.8l-38.36,22.97l0,44.87l38.36,-22.65l0,-45.19zm-218.42,206.67l0,-82.99l-73.25,-43.58l0,83.52l73.25,43.05zm80.02,-125.5l-71.02,42.56l0,83.02l71.02,-41.95l0,-83.63zm-75.81,-48.7l-69.33,41.45l69.65,41.97l67.68,-41.09l-68,-42.33z"/>
 </g>
</svg>