<svg width="122.88" height="112.99" xmlns="http://www.w3.org/2000/svg" data-name="Layer 1">
 <title>multiple-layers</title>

 <g>
  <title>Layer 1</title>
  <path fill="#5B9BA2" id="svg_1" d="m121.62,39.52l-57.52,28.6a3.75,3.75 0 0 1 -3.33,0l-57.67,-28.67a3.78,3.78 0 0 1 -0.18,-6.67l57.67,-32.3a3.78,3.78 0 0 1 3.73,0l57.68,32.3a3.77,3.77 0 0 1 -0.33,6.74l-0.05,0zm-9.77,40.93a3.76,3.76 0 0 1 3.6,-6.61l6.41,3.38a3.77,3.77 0 0 1 1.58,5.09a3.82,3.82 0 0 1 -1.74,1.69l-57.6,28.6a3.75,3.75 0 0 1 -3.33,0l-57.67,-28.67a3.77,3.77 0 0 1 -1.71,-5a3.69,3.69 0 0 1 1.61,-1.71l6,-3.14a3.76,3.76 0 0 1 4,6.35l49.44,24.57l49.41,-24.57l0,0.02zm0.15,-22.76a3.76,3.76 0 0 1 4.36,-6l5.49,2.89a3.76,3.76 0 0 1 -0.16,6.74l-57.59,28.6a3.75,3.75 0 0 1 -3.33,0l-57.67,-28.67a3.78,3.78 0 0 1 -1.71,-5a3.72,3.72 0 0 1 1.61,-1.71l5.9,-3.11a3.77,3.77 0 0 1 4.1,6.31l49.47,24.6l49.53,-24.65zm-49.56,2.85l49.56,-24.67l-49.56,-27.78l-49.61,27.78l49.61,24.67z"/>
 </g>
</svg>