<svg width="347" height="511.82" xmlns="http://www.w3.org/2000/svg" clip-rule="evenodd" fill-rule="evenodd" image-rendering="optimizeQuality" text-rendering="geometricPrecision" shape-rendering="geometricPrecision">

 <g>
  <title>Layer 1</title>
  <path fill="#00f291" id="svg_1" d="m132.03,268.69l-120.72,-11.39c-5.04,-0.47 -8.74,-4.95 -8.27,-9.99c0.11,-1.12 0.41,-2.18 0.88,-3.14l109.79,-240.78c1.53,-3.37 4.86,-5.35 8.34,-5.36l150.83,-0.03c5.08,0 9.2,4.12 9.2,9.2c0,2.06 -0.67,3.95 -1.81,5.49l-77.26,125.3l138.81,15.28c5.04,0.55 8.68,5.09 8.12,10.13a9.097,9.097 0 0 1 -2.46,5.31l-281.55,337.81c-3.23,3.89 -9.01,4.42 -12.9,1.18c-3.04,-2.52 -4.03,-6.6 -2.77,-10.12l81.77,-228.89zm-106.17,-28.43l118.94,11.22c0.98,0.01 1.98,0.18 2.96,0.53c4.78,1.71 7.27,6.97 5.57,11.76l-68.39,191.31l237.9,-285.43l-136.25,-14.99a9.405,9.405 0 0 1 -3.81,-1.33c-4.3,-2.66 -5.64,-8.31 -2.98,-12.61l76.64,-124.32l-128.51,0l-102.07,223.86z" fill-rule="nonzero"/>
 </g>
</svg>