<svg width="400" height="300" xmlns="http://www.w3.org/2000/svg" class="illustration styles_illustrationTablet__1DWOa">

 <g>
  <title>Layer 1</title>
  <g stroke="null" data-name="#59_ui_design_outline" id="_59_ui_design_outline">
   <rect stroke="null" id="svg_1" fill="#68e1fd" rx="8.56" height="116.23051" width="170.56435" y="73.91172" x="133.71733"/>
   <path stroke="null" id="svg_2" fill="#093f68" d="m294.3257,191.30395l-150.59431,0a11.12932,11.12932 0 0 1 -11.1177,-11.1177l0,-96.33017a11.1177,11.1177 0 0 1 11.1177,-11.10608l150.59431,0a11.1177,11.1177 0 0 1 11.1177,11.10608l0,96.33017a11.12932,11.12932 0 0 1 -11.1177,11.1177zm-150.59431,-116.23051a8.80587,8.80587 0 0 0 -8.79425,8.78263l0,96.33017a8.80587,8.80587 0 0 0 8.79425,8.79425l150.59431,0a8.80587,8.80587 0 0 0 8.79425,-8.79425l0,-96.33017a8.79425,8.79425 0 0 0 -8.79425,-8.78263l-150.59431,0z"/>
   <polygon stroke="null" id="svg_3" fill="#68e1fd" points="246.2535400390625,215.1309051513672 191.74545288085938,215.1309051513672 197.43789672851562,190.14222717285156 240.56109619140625,190.14222717285156 246.2535400390625,215.1309051513672 "/>
   <path stroke="null" id="svg_4" fill="#093f68" d="m246.25355,216.29264l-54.5081,0a1.16172,1.16172 0 0 1 -0.90614,-0.44146a1.16172,1.16172 0 0 1 -0.22073,-0.97585l5.68083,-24.98869a1.16172,1.16172 0 0 1 1.16172,-0.90614l43.1232,0a1.16172,1.16172 0 0 1 1.16172,0.90614l5.68083,24.98869a1.16172,1.16172 0 0 1 -0.22073,0.97585a1.16172,1.16172 0 0 1 -0.95261,0.44146zm-53.05594,-2.32345l51.60379,0l-5.15806,-22.66524l-41.31091,0l-5.13482,22.66524z"/>
   <rect stroke="null" id="svg_5" fill="#fff" height="86.25802" width="147.30663" y="83.6005" x="145.34619"/>
   <path stroke="null" id="svg_6" fill="#093f68" d="m292.65282,171.02025l-147.30663,0a1.16172,1.16172 0 0 1 -1.16172,-1.16172l0,-86.25802a1.16172,1.16172 0 0 1 1.16172,-1.16172l147.30663,0a1.16172,1.16172 0 0 1 1.16172,1.16172l0,86.25802a1.16172,1.16172 0 0 1 -1.16172,1.16172zm-146.1449,-2.32345l144.98318,0l0,-83.93457l-144.98318,0l0,83.93457z"/>
   <rect stroke="null" id="svg_7" fill="#68e1fd" rx="4.02" height="9.34026" width="77.21981" y="215.13092" x="180.38379"/>
   <path stroke="null" id="svg_8" fill="#093f68" d="m252.93347,225.6329l-67.86793,0a5.80862,5.80862 0 1 1 0,-11.61724l67.86793,0a5.80862,5.80862 0 0 1 0,11.61724zm-67.87954,-9.29379a3.48517,3.48517 0 1 0 0,6.97035l67.87954,0a3.48517,3.48517 0 1 0 0,-6.97035l-67.87954,0z"/>
   <path stroke="null" id="svg_9" fill="#093f68" d="m291.9674,95.50818l-145.91256,0a1.16172,1.16172 0 0 1 0,-2.32345l145.91256,0a1.16172,1.16172 0 0 1 0,2.32345z"/>
   <circle stroke="null" id="svg_10" fill="#ffbc0e" r="2.26535" cy="89.06061" cx="153.304"/>
   <circle stroke="null" id="svg_11" fill="#093f68" r="2.26535" cy="89.06061" cx="162.08664"/>
   <circle stroke="null" id="svg_12" fill="#093f68" r="2.26535" cy="89.06061" cx="170.86927"/>
   <rect stroke="null" id="svg_13" fill="#ffbc0e" height="25.39529" width="62.82604" y="101.34003" x="162.08664"/>
   <path stroke="null" id="svg_14" fill="#093f68" d="m224.91268,127.88543l-62.82604,0a1.16172,1.16172 0 0 1 -1.16172,-1.16172l0,-25.38367a1.16172,1.16172 0 0 1 1.16172,-1.16172l62.82604,0a1.16172,1.16172 0 0 1 1.16172,1.16172l0,25.38367a1.16172,1.16172 0 0 1 -1.16172,1.16172zm-61.66432,-2.32345l60.5026,0l0,-23.06023l-60.5026,0l0,23.06023z"/>
   <path stroke="null" id="svg_15" fill="#093f68" d="m162.08664,127.88543a1.16172,1.16172 0 0 1 -0.89453,-0.41822a1.16172,1.16172 0 0 1 0.16264,-1.63803l20.6206,-16.94956a1.16172,1.16172 0 0 1 1.47539,0l16.40355,13.66188a1.16172,1.16172 0 1 1 -1.48701,1.78906l-15.66004,-13.05778l-19.88872,16.36869a1.16172,1.16172 0 0 1 -0.73189,0.24396z"/>
   <path stroke="null" id="svg_16" fill="#093f68" d="m224.91268,127.88543a1.21981,1.21981 0 0 1 -0.72027,-0.24396l-18.58759,-14.73066l-9.44482,8.32956a1.16172,1.16172 0 0 1 -1.53348,-1.74259l10.16509,-8.98013a1.16172,1.16172 0 0 1 1.48701,0l19.34271,15.33476a1.16172,1.16172 0 0 1 -0.73189,2.06787l0.02323,-0.03485z"/>
   <path stroke="null" id="svg_17" fill="#dfeaef" d="m273.101,103.65186l-36.01345,0a1.16172,1.16172 0 0 1 0,-2.32345l36.01345,0a1.16172,1.16172 0 0 1 0,2.32345z"/>
   <path stroke="null" id="svg_18" fill="#dfeaef" d="m273.101,113.92151l-36.01345,0a1.16172,1.16172 0 1 1 0,-2.32345l36.01345,0a1.16172,1.16172 0 0 1 0,2.32345z"/>
   <path stroke="null" id="svg_19" fill="#dfeaef" d="m265.44524,124.1563l-28.38092,0a1.16172,1.16172 0 0 1 0,-2.32345l28.38092,0a1.16172,1.16172 0 0 1 0,2.32345z"/>
   <rect stroke="null" id="svg_20" fill="#70cc40" height="18.83155" width="26.78936" y="135.18106" x="162.08664"/>
   <path stroke="null" id="svg_21" fill="#093f68" d="m188.876,155.17433l-26.78936,0a1.16172,1.16172 0 0 1 -1.16172,-1.16172l0,-18.83155a1.16172,1.16172 0 0 1 1.16172,-1.16172l26.78936,0a1.16172,1.16172 0 0 1 1.16172,1.16172l0,18.83155a1.16172,1.16172 0 0 1 -1.16172,1.16172zm-25.62764,-2.32345l24.46591,0l0,-16.5081l-24.46591,0l0,16.5081z"/>
   <rect stroke="null" id="svg_22" fill="#70cc40" height="18.83155" width="26.78936" y="135.18106" x="205.20984"/>
   <path stroke="null" id="svg_23" fill="#093f68" d="m232.02243,155.17433l-26.81259,0a1.16172,1.16172 0 0 1 -1.16172,-1.16172l0,-18.83155a1.16172,1.16172 0 0 1 1.16172,-1.16172l26.81259,0a1.16172,1.16172 0 0 1 1.16172,1.16172l0,18.83155a1.16172,1.16172 0 0 1 -1.16172,1.16172zm-25.62764,-2.32345l24.46591,0l0,-16.5081l-24.48915,0l0.02323,16.5081z"/>
   <rect stroke="null" id="svg_24" fill="#70cc40" height="18.83155" width="26.78936" y="135.18106" x="248.33304"/>
   <path stroke="null" id="svg_25" fill="#093f68" d="m275.1224,155.17433l-26.83583,0a1.16172,1.16172 0 0 1 -1.16172,-1.16172l0,-18.83155a1.16172,1.16172 0 0 1 1.16172,-1.16172l26.83583,0a1.16172,1.16172 0 0 1 1.16172,1.16172l0,18.83155a1.16172,1.16172 0 0 1 -1.16172,1.16172zm-25.62764,-2.32345l24.46591,0l0,-16.5081l-24.51238,0l0.04647,16.5081z"/>
   <path stroke="null" id="svg_26" fill="#dfeaef" d="m181.25509,163.96858l-11.53592,0a1.16172,1.16172 0 0 1 0,-2.32345l11.53592,0a1.16172,1.16172 0 0 1 0,2.32345z"/>
   <path stroke="null" id="svg_27" fill="#dfeaef" d="m224.37829,163.96858l-11.54754,0a1.16172,1.16172 0 0 1 0,-2.32345l11.54754,0a1.16172,1.16172 0 0 1 0,2.32345z"/>
   <path stroke="null" id="svg_28" fill="#dfeaef" d="m267.50149,163.96858l-11.54754,0a1.16172,1.16172 0 0 1 0,-2.32345l11.54754,0a1.16172,1.16172 0 0 1 0,2.32345z"/>
   <rect stroke="null" id="svg_29" fill="#68e1fd" rx="5.33" height="118.35646" width="76.3369" y="106.13795" x="75.74729"/>
   <path stroke="null" id="svg_30" fill="#093f68" d="m145.88058,225.65614l-63.89483,0a7.37695,7.37695 0 0 1 -7.4118,-7.40018l0,-105.92601a7.37695,7.37695 0 0 1 7.36533,-7.35371l63.89483,0a7.36533,7.36533 0 0 1 7.36533,7.35371l0,105.92601a7.36533,7.36533 0 0 1 -7.31886,7.40018zm-63.89483,-118.35646a5.04188,5.04188 0 0 0 -5.04188,5.03027l0,105.92601a5.0535,5.0535 0 0 0 5.04188,5.03027l63.89483,0a5.0535,5.0535 0 0 0 5.04188,-5.03027l0,-105.92601a5.04188,5.04188 0 0 0 -5.04188,-5.03027l-63.89483,0z"/>
   <rect stroke="null" id="svg_31" fill="#fff" rx="2.56" height="85.03821" width="63.46499" y="121.84446" x="82.18325"/>
   <path stroke="null" id="svg_32" fill="#093f68" d="m142.66261,208.0444l-57.50535,0a4.13574,4.13574 0 0 1 -4.13574,-4.13574l0,-79.09018a4.13574,4.13574 0 0 1 4.13574,-4.13574l57.50535,0a4.14736,4.14736 0 0 1 4.14736,4.13574l0,79.09018a4.13574,4.13574 0 0 1 -4.14736,4.13574zm-57.50535,-85.04983a1.81229,1.81229 0 0 0 -1.81229,1.81229l0,79.09018a1.81229,1.81229 0 0 0 1.81229,1.81229l57.50535,0a1.81229,1.81229 0 0 0 1.82391,-1.81229l0,-79.07857a1.81229,1.81229 0 0 0 -1.82391,-1.81229l-57.50535,-0.01162z"/>
   <circle stroke="null" id="svg_33" fill="#093f68" r="0.99908" cy="112.72493" cx="104.05851"/>
   <path stroke="null" id="svg_34" fill="#093f68" d="m124.76044,113.88665l-15.88077,0a1.16172,1.16172 0 0 1 0,-2.32345l15.93886,0a1.16172,1.16172 0 0 1 0,2.32345l-0.05809,0z"/>
   <circle stroke="null" id="svg_35" fill="#093f68" r="4.19383" cy="217.18717" cx="113.90993"/>
   <rect stroke="null" id="svg_36" fill="#f56132" height="30.36747" width="48.1767" y="130.98723" x="89.87386"/>
   <path stroke="null" id="svg_37" fill="#093f68" d="m138.06218,162.49319l-48.18832,0a1.16172,1.16172 0 0 1 -1.16172,-1.16172l0,-30.34424a1.16172,1.16172 0 0 1 1.16172,-1.16172l48.18832,0a1.16172,1.16172 0 0 1 1.16172,1.16172l0,30.34424a1.16172,1.16172 0 0 1 -1.16172,1.16172zm-47.0266,-2.32345l45.86487,0l0,-28.02079l-45.86487,0l0,28.02079z"/>
   <rect stroke="null" id="svg_38" fill="#70cc40" rx="4.35" height="10.107" width="48.1767" y="188.48096" x="89.87386"/>
   <path stroke="null" id="svg_39" fill="#093f68" d="m132.99706,199.76131l-38.05808,0a6.22684,6.22684 0 0 1 0,-12.44207l38.0697,0a6.22684,6.22684 0 1 1 0,12.44207l-0.01162,0zm-38.05808,-10.11862a3.90339,3.90339 0 0 0 0,7.79517l38.0697,0a3.90339,3.90339 0 1 0 0,-7.79517l-38.0697,0z"/>
   <path stroke="null" id="svg_40" fill="#dfeaef" d="m138.06218,171.00863l-48.18832,0a1.16172,1.16172 0 0 1 0,-2.32345l48.18832,0a1.16172,1.16172 0 0 1 0,2.32345z"/>
   <path stroke="null" id="svg_41" fill="#dfeaef" d="m127.22329,180.32566l-37.34943,0a1.16172,1.16172 0 0 1 0,-2.32345l37.34943,0a1.16172,1.16172 0 0 1 0,2.32345z"/>
   <path stroke="null" id="svg_42" fill="#093f68" d="m122.26273,158.46201a1.16172,1.16172 0 0 1 -0.88291,-0.4066l-14.54479,-16.74045l-15.38123,16.07826a1.16172,1.16172 0 1 1 -1.67288,-1.6148l16.26414,-16.99602a1.16172,1.16172 0 0 1 1.70773,0l15.38123,17.70468a1.16172,1.16172 0 0 1 -0.11617,1.63803a1.16172,1.16172 0 0 1 -0.75512,0.3369z"/>
   <path stroke="null" id="svg_43" fill="#093f68" d="m138.05056,155.30212a1.16172,1.16172 0 0 1 -0.7435,-0.27881l-10.02568,-8.50382l-7.73708,7.55121a1.16172,1.16172 0 0 1 -1.62641,-1.67288l8.4922,-8.28309a1.16172,1.16172 0 0 1 1.56833,0l10.82727,9.17762a1.16172,1.16172 0 0 1 -0.75512,2.05625l0,-0.04647z"/>
   <path stroke="null" id="svg_44" fill="#093f68" d="m67.75463,225.65614a1.16172,1.16172 0 0 1 -1.09202,-0.96423a1.16172,1.16172 0 0 1 0.98747,-1.35922c1.16172,-0.23234 192.28859,-0.0697 250.81625,0a1.16172,1.16172 0 0 1 0,2.32345l0,0c-2.47447,0 -247.09874,-0.20911 -250.50259,0l-0.20911,0z"/>
   <rect stroke="null" id="svg_45" fill="#fff" rx="2.72" height="30.98318" width="40.55579" y="165.31618" x="277.89892"/>
   <path stroke="null" id="svg_46" fill="#093f68" d="m315.30644,197.46109l-34.24763,0a4.33323,4.33323 0 0 1 -4.32161,-4.32161l0,-24.6634a4.33323,4.33323 0 0 1 4.32161,-4.32161l34.24763,0a4.33323,4.33323 0 0 1 4.32161,4.32161l0,24.6634a4.33323,4.33323 0 0 1 -4.32161,4.32161zm-34.24763,-30.98318a1.99817,1.99817 0 0 0 -1.99817,1.99817l0,24.6634a1.99817,1.99817 0 0 0 1.99817,1.99817l34.24763,0a1.99817,1.99817 0 0 0 1.99817,-1.99817l0,-24.6634a1.99817,1.99817 0 0 0 -1.99817,-1.99817l-34.24763,0z"/>
   <path stroke="null" id="svg_47" fill="#dfeaef" d="m311.41466,174.72615l-24.8609,0a1.16172,1.16172 0 0 1 0,-2.32345l24.8609,0a1.16172,1.16172 0 0 1 0,2.32345z"/>
   <path stroke="null" id="svg_48" fill="#dfeaef" d="m311.41466,181.96369l-24.8609,0a1.16172,1.16172 0 0 1 0,-2.32345l24.8609,0a1.16172,1.16172 0 0 1 0,2.32345z"/>
   <path stroke="null" id="svg_49" fill="#dfeaef" d="m304.60696,189.21285l-18.05319,0a1.16172,1.16172 0 0 1 0,-2.32345l18.05319,0a1.16172,1.16172 0 0 1 0,2.32345z"/>
   <polygon stroke="null" id="svg_50" fill="#fff" points="324.15875244140625,190.76956176757812 309.9741516113281,204.9542236328125 301.92340087890625,182.7188262939453 324.15875244140625,190.76956176757812 "/>
   <path stroke="null" id="svg_51" fill="#093f68" d="m309.97413,206.11594l-0.25558,0a1.16172,1.16172 0 0 1 -0.83644,-0.73189l-8.05075,-22.2354a1.16172,1.16172 0 0 1 1.48701,-1.48701l22.2354,8.05075a1.16172,1.16172 0 0 1 0.4066,1.82391l-14.18465,14.18465a1.16172,1.16172 0 0 1 -0.80159,0.39499zm-6.11067,-21.45705l6.58698,18.18098l11.61724,-11.61724l-18.20422,-6.56374z"/>
   <line stroke="null" id="svg_52" fill="#fff" y2="202.63076" x2="321.84695" y1="197.85608" x1="317.07226"/>
   <path stroke="null" id="svg_53" fill="#093f68" d="m321.84695,203.79249a1.16172,1.16172 0 0 1 -0.82482,-0.3369l-4.77469,-4.77469a1.16172,1.16172 0 0 1 0,-1.64965a1.16172,1.16172 0 0 1 1.63803,0l4.77469,4.7863a1.16172,1.16172 0 0 1 0,1.63803a1.16172,1.16172 0 0 1 -0.81321,0.3369z"/>
  </g>
 </g>
</svg>