<svg width="164.93" height="126.22" xmlns="http://www.w3.org/2000/svg" xmlns:xlink="http://www.w3.org/1999/xlink" class="illustration styles_illustrationTablet__1DWOa" data-name="Layer 1">
 <defs>
  <linearGradient y2="6.03799" x2="1.61986" y1="-1.06442" x1="0.18382" id="linear-gradient">
   <stop offset="0.01"/>
   <stop stop-opacity="0.69" offset="0.08"/>
   <stop stop-opacity="0.32" offset="0.21"/>
   <stop stop-opacity="0" offset="1"/>
  </linearGradient>
  <linearGradient xlink:href="#linear-gradient" y2="19.79" x2="-327.3" y1="88.34" x1="-363.52" id="linear-gradient-2"/>
  <linearGradient xlink:href="#linear-gradient" gradientTransform="matrix(1, 0, 0, -1, -4.91, 138.67)" y2="105.06" x2="116.22" y1="136.55" x1="112.01" id="linear-gradient-4"/>
 </defs>
 <title>10</title>
 <g>
  <title>Layer 1</title>
  <path id="svg_1" opacity="0.18" fill="#68e1fd" d="m28.56,118.31a63.65,63.65 0 0 0 6.72,1.42c12.68,2 25.67,0.84 38.41,2.38c13.49,1.62 26.59,6.27 40.19,2.92c10.9,-2.69 20.59,-9.56 27.68,-18.15c9.94,-12 15.37,-27.14 19.51,-42.18c4.64,-16.83 7.15,-37.05 -4.77,-49.8c-9.52,-10.2 -25,-11.81 -38.94,-11.27c-7.37,0.29 -14.74,1 -22.11,0.76s-13.07,-2.66 -19.86,-4c-10.82,-2.15 -24.64,5.09 -32.14,12.28c-9,8.58 -14,20.53 -22.33,29.73c-5.6,6.17 -12.74,11.19 -16.53,18.61a40.77,40.77 0 0 0 -3.56,12.52c-1.36,9.07 -1.44,18.77 2.78,26.91c4.86,9.38 14.58,15.05 24.95,17.87z"/>
  <path id="svg_2" stroke-width="0.48" stroke-miterlimit="10" stroke="#fff" fill="none" d="m117.94,17.14s31.38,13.94 32.46,33.35s-57.5,15.91 -70.31,24.28s-68.33,21.09 -67.26,6.51s14.26,-19.61 14.26,-19.61"/>
  <path id="svg_3" opacity="0.18" fill="#68e1fd" d="m35.77,79.82l19.15,-51.1a4.37,4.37 0 0 1 4.09,-2.83l80.64,0a4.37,4.37 0 0 1 4.36,4.37a4.48,4.48 0 0 1 -0.2,1.31l-18.53,58a4.35,4.35 0 0 1 -4.52,3l-81.28,-6.9a4.37,4.37 0 0 1 -4,-4.71a4.54,4.54 0 0 1 0.29,-1.14z"/>
  <path id="svg_4" fill="#fff" d="m141.65,26.46l-18.56,58.03a4.38,4.38 0 0 1 -4.53,3l-24.34,-2.06l-56.89,-4.86a4.35,4.35 0 0 1 -4,-4.7a4.72,4.72 0 0 1 0.28,-1.2l4.55,-12l8.23,-22l6.38,-17a4.37,4.37 0 0 1 4.09,-2.83l80.64,0a4.36,4.36 0 0 1 4.36,4.36a4.24,4.24 0 0 1 -0.21,1.26z"/>
  <polygon id="svg_39" opacity="0.18" fill="#68e1fd" points="62.57670021057129,77.49446487426758 68.52669715881348,61.164466857910156 93.28670692443848,61.164466857910156 86.82670021057129,77.9444694519043 62.57670021057129,77.49446487426758 "/>
  <polygon id="svg_5" opacity="0.18" fill="#68e1fd" points="35.35330390930176,77.22223281860352 41.30330467224121,60.89223098754883 66.06331062316895,60.89223098754883 59.60331153869629,77.67223739624023 35.35330390930176,77.22223281860352 "/>
  <path id="svg_6" fill="#68e1fd" d="m141.65,26.46l-18.56,58.03a4.38,4.38 0 0 1 -4.53,3l-24.34,-2.06l22.45,-60.94l0.17,-0.47l24.94,0.26a2.07,2.07 0 0 0 0,0.22a4.34,4.34 0 0 1 -0.13,1.96z"/>
  <path id="svg_7" opacity="0.18" fill="#68e1fd" d="m62.83,31.06l-6.13,20.33a1.54,1.54 0 0 1 -1.5,1.13l-16.28,-0.47l8.24,-22l14.3,-0.84a1.39,1.39 0 0 1 1.37,1.85z"/>
  <path id="svg_8" fill="#fff" d="m25.52,46.39l6.34,-17.95a1.55,1.55 0 0 1 1.35,-1.05l26.72,-1.58a1.41,1.41 0 0 1 1.38,1.86l-6.13,20.34a1.56,1.56 0 0 1 -1.5,1.14l-26.94,-0.81a1.41,1.41 0 0 1 -1.22,-1.95z"/>
  <polygon id="svg_9" fill="#68e1fd" points="141.82 24.28 141.82 24.51 141.82 24.76 116.67 24.5 52.77 23.85 52.77 23.37 116.84 24.02 141.78 24.28 141.82 24.28"/>
  <polygon id="svg_10" fill="#68e1fd" points="34.27 44.51 30.85 44.51 32.65 39.86 36.06 39.86 34.27 44.51"/>
  <polygon id="svg_11" fill="#68e1fd" points="38.48 44.51 35.06 44.51 38.72 35.05 42.14 35.05 38.48 44.51"/>
  <polygon id="svg_12" fill="#68e1fd" points="42.7 44.51 39.28 44.51 41.51 38.75 44.92 38.75 42.7 44.51"/>
  <polygon id="svg_13" fill="#68e1fd" points="46.91 44.51 43.49 44.51 48.31 32.05 51.73 32.05 46.91 44.51"/>
  <polygon id="svg_14" fill="url(#linear-gradient)" points="38.48 44.51 35.06 44.51 38.72 35.05 42.14 35.05 38.48 44.51"/>
  <polygon id="svg_15" fill="url(#linear-gradient-2)" points="46.91 44.51 43.49 44.51 48.31 32.05 51.73 32.05 46.91 44.51"/>
  <polygon id="svg_16" fill="#68e1fd" points="51.13 44.51 47.71 44.51 53.87 28.57 57.29 28.57 51.13 44.51"/>
  <path id="svg_17" fill="#fff" d="m130.09,38.99a5.85,5.85 0 1 0 -0.12,0.39l0.06,-0.19l0.06,-0.2z"/>
  <path id="svg_18" fill="#fff" d="m117.3,76.12a5.88,5.88 0 0 0 -11.27,-3.24c0,0.06 0,0.13 0,0.19s0,0.13 -0.07,0.19a5.87,5.87 0 0 0 11,4c0.06,-0.19 0.11,-0.38 0.17,-0.57s0.1,-0.38 0.17,-0.57z"/>
  <path id="svg_19" fill="#fff" d="m123.28,55.57a5.87,5.87 0 0 0 -11.74,0l0,0.41a5.87,5.87 0 0 0 11.74,0l0,-0.41z"/>
  <path id="svg_20" fill="#68e1fd" d="m124.25,37.38l0,0l1.38,-4.43a4.87,4.87 0 0 0 -1.2,-0.21a4.65,4.65 0 0 0 -4.61,3.25a4.87,4.87 0 0 0 -0.21,1.2a5,5 0 0 0 0.11,1.21a4.54,4.54 0 0 0 1.12,2.12a4.58,4.58 0 0 0 4.43,1.38a5.1,5.1 0 0 0 1.13,-0.41a4.92,4.92 0 0 0 1,-0.7a4.71,4.71 0 0 0 1.28,-2l-4.43,-1.41z"/>
  <path id="svg_21" fill="#68e1fd" d="m117.49,55.76l0,0l0,-4.64a4.68,4.68 0 0 0 -2.31,0.63a4.37,4.37 0 0 0 -1,0.74a4.62,4.62 0 0 0 2.09,7.75a4.45,4.45 0 0 0 2.4,0a4.69,4.69 0 0 0 1.12,-0.45l-2.3,-4.03z"/>
  <path id="svg_22" fill="#68e1fd" d="m111.56,74.88l1.44,-4.41a4.77,4.77 0 0 0 -2.4,-0.13a4.64,4.64 0 0 0 -3.67,4.3a4.4,4.4 0 0 0 0.1,1.2a4.54,4.54 0 0 0 0.4,1.14a4.6,4.6 0 0 0 2.66,2.31l1.44,-4.42l0.03,0.01z"/>
  <polygon id="svg_33" opacity="0.18" fill="#68e1fd" points="68.84 55.78 74.79 39.44 99.56 39.44 93.09 56.22 68.84 55.78"/>
  <polygon id="svg_34" fill="#68e1fd" points="101.98 8.56 112.23 13.3 110.5 19.34 101.98 8.56"/>
  <polygon id="svg_35" fill="#68e1fd" points="101.98 8.56 117.95 8.56 113.09 11.53 101.98 8.56"/>
  <polygon id="svg_36" fill="#68e1fd" points="114.94 15.97 112.23 13.3 101.98 8.56 113.09 11.53 114.94 15.97"/>
  <polygon id="svg_37" fill="url(#linear-gradient-4)" points="114.94 15.97 112.23 13.3 101.98 8.56 113.09 11.53 114.94 15.97"/>
  <polygon id="svg_38" fill="#68e1fd" points="114.94 15.97 112.23 13.3 101.98 8.56 114.94 15.97"/>
 </g>
</svg>